# xmcd
#
# Track frame offsets: 
#        150
#        21590
#        34180
#        47567
#        61665
#        77195
#        94635
#        142810
#        178692
#
# Disc length: 2723 seconds
#
# Revision: 0
# Processed by: cddbd v1.5.1PL2 Copyright (c) Steve Scherf et al.
# Submitted via: ExactAudioCopy v0.90b4
#
DISCID=6d0aa109
DTITLE=Various Artist - The Best of Blue Note Vol. 1
DYEAR=1900
DGENRE=Blues
TTITLE0=Bud Powell - Un Poco Loco
TTITLE1=James Moody - Tin Tin Deo
TTITLE2=Thelonious Monk - Criss Cross
TTITLE3=Milt Jackson - Bags' Groove
TTITLE4=Clifford Brown - Cherokee
TTITLE5=Miles Davis - Tempus Fugit
TTITLE6=John Coltrane - Blue Train
TTITLE7=Herbie Hancock - Maiden Voyage
TTITLE8=Donald Byrd - Christo Redentor
EXTD=
EXTT0=
EXTT1=
EXTT2=
EXTT3=
EXTT4=
EXTT5=
EXTT6=
EXTT7=
EXTT8=
PLAYORDER=
